<svg width="25" height="24" viewBox="0 0 25 24" fill="none" xmlns="http://www.w3.org/2000/svg">
<path fill-rule="evenodd" clip-rule="evenodd" d="M12.1579 12.2969V6.21642C12.1579 5.82075 12.4787 5.5 12.8743 5.5C13.27 5.5 13.5907 5.82075 13.5907 6.21642V12.2969H19.813C20.2013 12.2969 20.5161 12.6117 20.5161 13C20.5161 13.3883 20.2013 13.7031 19.813 13.7031H13.5907V19.7836C13.5907 20.1792 13.27 20.5 12.8743 20.5C12.4787 20.5 12.1579 20.1792 12.1579 19.7836V13.7031H5.23253C4.83686 13.7031 4.51611 13.3883 4.51611 13C4.51611 12.6117 4.83686 12.2969 5.23253 12.2969H12.1579Z" fill="#7B9DB4"/>
</svg>
