<svg width="44" height="51" viewBox="0 0 44 51" fill="none" xmlns="http://www.w3.org/2000/svg">
<path d="M9.57308 21.7815L21.8149 0.577942L26.7343 9.62207C28.0676 12.0732 28.0299 15.0415 26.6347 17.458L21.98 25.5202L26.7292 34.2923C28.055 36.7411 28.0144 39.7027 26.6221 42.1144L21.5912 50.8281L9.55521 29.764C8.14118 27.2893 8.14798 24.2498 9.57308 21.7815Z" fill="url(#paint0_linear_21_1756)"/>
<path d="M16.7972 34.4971L21.98 25.5201L26.7292 34.2922C28.055 36.7411 28.0144 39.7027 26.6221 42.1143L21.5912 50.8281L16.7943 42.5057C15.3656 40.027 15.3667 36.9747 16.7972 34.4971Z" fill="url(#paint1_linear_21_1756)"/>
<defs>
<linearGradient id="paint0_linear_21_1756" x1="21.8149" y1="0.577942" x2="15.7855" y2="40.1078" gradientUnits="userSpaceOnUse">
<stop stop-color="#B7F0B6"/>
<stop offset="1" stop-color="#5AE4B0"/>
</linearGradient>
<linearGradient id="paint1_linear_21_1756" x1="22.0886" y1="25.9256" x2="21.5912" y2="50.8281" gradientUnits="userSpaceOnUse">
<stop stop-color="#1098AA"/>
<stop offset="1" stop-color="#7FEDAF"/>
</linearGradient>
</defs>
</svg>
