<svg width="26" height="25" viewBox="0 0 26 25" fill="none" xmlns="http://www.w3.org/2000/svg">
<path d="M21.7624 16.5422L20.3724 15.2921C20.4382 14.8679 20.4721 14.4349 20.4721 14.0018C20.4721 13.5687 20.4382 13.1357 20.3724 12.7115L21.7624 11.4615C21.8672 11.367 21.9423 11.2413 21.9775 11.1009C22.0128 10.9606 22.0066 10.8123 21.9597 10.6757L21.9406 10.6176C21.558 9.49263 20.985 8.44972 20.2493 7.53931L20.2111 7.49243C20.1218 7.38205 20.0029 7.3027 19.8699 7.26484C19.737 7.22698 19.5962 7.2324 19.4662 7.28036L17.7409 7.9255C17.1043 7.37635 16.3934 6.94328 15.6251 6.63969L15.292 4.74224C15.2668 4.59947 15.201 4.46812 15.1032 4.36565C15.0054 4.26317 14.8803 4.19443 14.7445 4.16854L14.6872 4.15738C13.5815 3.94754 12.4186 3.94754 11.313 4.15738L11.2557 4.16854C11.1198 4.19443 10.9947 4.26317 10.8969 4.36565C10.7991 4.46812 10.7333 4.59947 10.7081 4.74224L10.3729 6.64862C9.61077 6.95228 8.90108 7.38511 8.27193 7.92996L6.5339 7.28036C6.40395 7.23201 6.2631 7.22641 6.13005 7.26429C5.997 7.30217 5.87806 7.38174 5.78903 7.49243L5.75083 7.53931C5.01603 8.45036 4.44312 9.4931 4.05949 10.6176L4.04039 10.6757C3.94489 10.9547 4.02341 11.2672 4.23775 11.4615L5.64472 12.7249C5.57894 13.1446 5.54711 13.5732 5.54711 13.9996C5.54711 14.4282 5.57894 14.8568 5.64472 15.2742L4.23775 16.5377C4.1329 16.6321 4.05786 16.7579 4.02261 16.8982C3.98736 17.0386 3.99356 17.1869 4.04039 17.3235L4.05949 17.3815C4.44359 18.5066 5.01233 19.5446 5.75083 20.4598L5.78903 20.5067C5.87827 20.6171 5.99722 20.6965 6.13019 20.7343C6.26316 20.7722 6.40391 20.7668 6.5339 20.7188L8.27193 20.0692C8.90433 20.6161 9.611 21.0492 10.3729 21.3505L10.7081 23.2569C10.7333 23.3997 10.7991 23.531 10.8969 23.6335C10.9947 23.736 11.1198 23.8047 11.2557 23.8306L11.313 23.8418C12.4288 24.0527 13.5714 24.0527 14.6872 23.8418L14.7445 23.8306C14.8803 23.8047 15.0054 23.736 15.1032 23.6335C15.201 23.531 15.2668 23.3997 15.292 23.2569L15.6251 21.3595C16.3931 21.0567 17.108 20.6222 17.7409 20.0737L19.4662 20.7188C19.5962 20.7671 19.737 20.7727 19.8701 20.7349C20.0031 20.697 20.1221 20.6174 20.2111 20.5067L20.2493 20.4598C20.9878 19.5424 21.5565 18.5066 21.9406 17.3815L21.9597 17.3235C22.0552 17.0489 21.9767 16.7364 21.7624 16.5422ZM18.8657 12.975C18.9187 13.312 18.9463 13.658 18.9463 14.004C18.9463 14.35 18.9187 14.6961 18.8657 15.0331L18.7256 15.9283L20.3108 17.3547C20.0705 17.9371 19.7672 18.4884 19.4068 18.9977L17.4375 18.2633L16.7711 18.8392C16.2639 19.2767 15.6994 19.6205 15.0882 19.8616L14.2797 20.1808L13.8998 22.3461C13.3005 22.4176 12.6954 22.4176 12.096 22.3461L11.7162 20.1763L10.914 19.8527C10.3092 19.6116 9.74682 19.2678 9.24387 18.8325L8.57752 18.2543L6.59544 18.9955C6.23468 18.4843 5.93333 17.9329 5.69141 17.3525L7.29363 15.9127L7.15569 15.0197C7.10476 14.6871 7.07717 14.3434 7.07717 14.004C7.07717 13.6625 7.10263 13.321 7.15569 12.9883L7.29363 12.0954L5.69141 10.6556C5.93121 10.073 6.23468 9.52382 6.59544 9.01262L8.57752 9.75375L9.24387 9.17558C9.74682 8.74028 10.3092 8.39651 10.914 8.15542L11.7183 7.8362L12.0982 5.66641C12.6945 5.59498 13.3035 5.59498 13.902 5.66641L14.2818 7.83174L15.0904 8.15096C15.6994 8.39205 16.266 8.73582 16.7732 9.17335L17.4396 9.74928L19.4089 9.01486C19.7697 9.52605 20.071 10.0774 20.313 10.6578L18.7277 12.0843L18.8657 12.975ZM13.0022 9.85197C10.9395 9.85197 9.26722 11.611 9.26722 13.7808C9.26722 15.9506 10.9395 17.7097 13.0022 17.7097C15.0649 17.7097 16.7372 15.9506 16.7372 13.7808C16.7372 11.611 15.0649 9.85197 13.0022 9.85197ZM14.6829 15.5488C14.4625 15.7813 14.2005 15.9658 13.9121 16.0914C13.6236 16.2171 13.3144 16.2815 13.0022 16.281C12.3677 16.281 11.7713 16.0198 11.3214 15.5488C11.1004 15.3169 10.9251 15.0413 10.8056 14.7379C10.6861 14.4345 10.6249 14.1092 10.6254 13.7808C10.6254 13.1134 10.8737 12.4861 11.3214 12.0128C11.7713 11.5396 12.3677 11.2806 13.0022 11.2806C13.6367 11.2806 14.233 11.5396 14.6829 12.0128C14.904 12.2447 15.0793 12.5203 15.1988 12.8237C15.3182 13.1271 15.3795 13.4524 15.379 13.7808C15.379 14.4483 15.1307 15.0755 14.6829 15.5488Z" fill="#C2CFE0"/>
</svg>
