<svg width="10" height="14" viewBox="0 0 10 14" fill="none" xmlns="http://www.w3.org/2000/svg">
<path d="M7.0832 6.8832C7.15831 6.80809 7.20051 6.70622 7.20051 6.6C7.20051 6.49378 7.15831 6.39191 7.0832 6.3168C7.00809 6.24169 6.90622 6.19949 6.8 6.19949C6.69378 6.19949 6.59191 6.24169 6.5168 6.3168L4 8.8344L3.0832 7.9168C3.04601 7.87961 3.00186 7.85011 2.95327 7.82998C2.90468 7.80985 2.8526 7.79949 2.8 7.79949C2.74741 7.79949 2.69532 7.80985 2.64673 7.82998C2.59814 7.85011 2.55399 7.87961 2.5168 7.9168C2.47961 7.95399 2.45011 7.99814 2.42998 8.04673C2.40985 8.09532 2.39949 8.1474 2.39949 8.2C2.39949 8.25259 2.40985 8.30467 2.42998 8.35327C2.45011 8.40186 2.47961 8.44601 2.5168 8.4832L3.7168 9.6832C3.75396 9.72045 3.7981 9.75 3.84669 9.77017C3.89529 9.79033 3.94739 9.80071 4 9.80071C4.05261 9.80071 4.10471 9.79033 4.15331 9.77017C4.2019 9.75 4.24604 9.72045 4.2832 9.6832L7.0832 6.8832ZM3.6 0.599999C3.35174 0.599868 3.10955 0.676741 2.90681 0.820021C2.70407 0.963301 2.55075 1.16594 2.468 1.4H1.2C0.88174 1.4 0.576515 1.52643 0.351472 1.75147C0.126428 1.97651 0 2.28174 0 2.6V12.2C0 12.5183 0.126428 12.8235 0.351472 13.0485C0.576515 13.2736 0.88174 13.4 1.2 13.4H8.4C8.71826 13.4 9.02349 13.2736 9.24853 13.0485C9.47357 12.8235 9.6 12.5183 9.6 12.2V2.6C9.6 2.28174 9.47357 1.97651 9.24853 1.75147C9.02349 1.52643 8.71826 1.4 8.4 1.4H7.132C7.04925 1.16594 6.89593 0.963301 6.69319 0.820021C6.49045 0.676741 6.24826 0.599868 6 0.599999H3.6ZM3.2 1.8C3.2 1.69391 3.24214 1.59217 3.31716 1.51716C3.39217 1.44214 3.49391 1.4 3.6 1.4H6C6.10609 1.4 6.20783 1.44214 6.28284 1.51716C6.35786 1.59217 6.4 1.69391 6.4 1.8C6.4 1.90609 6.35786 2.00783 6.28284 2.08284C6.20783 2.15786 6.10609 2.2 6 2.2H3.6C3.49391 2.2 3.39217 2.15786 3.31716 2.08284C3.24214 2.00783 3.2 1.90609 3.2 1.8ZM1.2 2.2H2.468C2.55075 2.43406 2.70407 2.6367 2.90681 2.77998C3.10955 2.92326 3.35174 3.00013 3.6 3H6C6.24826 3.00013 6.49045 2.92326 6.69319 2.77998C6.89593 2.6367 7.04925 2.43406 7.132 2.2H8.4C8.50609 2.2 8.60783 2.24214 8.68284 2.31716C8.75786 2.39217 8.8 2.49391 8.8 2.6V12.2C8.8 12.3061 8.75786 12.4078 8.68284 12.4828C8.60783 12.5579 8.50609 12.6 8.4 12.6H1.2C1.09391 12.6 0.992172 12.5579 0.917157 12.4828C0.842143 12.4078 0.8 12.3061 0.8 12.2V2.6C0.8 2.49391 0.842143 2.39217 0.917157 2.31716C0.992172 2.24214 1.09391 2.2 1.2 2.2Z" fill="white"/>
</svg>
