<svg width="16" height="17" viewBox="0 0 16 17" fill="none" xmlns="http://www.w3.org/2000/svg">
<g clip-path="url(#clip0_21_961)">
<path d="M10.404 5.61L9.38901 4.596L4.31401 9.67C4.11413 9.86994 3.9556 10.1073 3.84746 10.3685C3.73931 10.6297 3.68367 10.9096 3.68372 11.1924C3.68377 11.4751 3.7395 11.755 3.84773 12.0162C3.95596 12.2773 4.11457 12.5146 4.31451 12.7145C4.51444 12.9144 4.75179 13.0729 5.013 13.1811C5.2742 13.2892 5.55415 13.3448 5.83686 13.3448C6.11957 13.3447 6.3995 13.289 6.66067 13.1808C6.92184 13.0725 7.15913 12.9139 7.35901 12.714L13.449 6.625C14.1219 5.95201 14.4998 5.0393 14.4997 4.08765C14.4996 3.13599 14.1215 2.22335 13.4485 1.5505C12.7755 0.877646 11.8628 0.499693 10.9112 0.499786C9.9595 0.49988 9.04686 0.878013 8.37401 1.551L1.98001 7.944L1.96601 7.957C0.0110059 9.912 0.0110059 13.08 1.96601 15.034C3.92101 16.988 7.08901 16.988 9.04401 15.034L9.05701 15.02L9.05801 15.021L13.423 10.657L12.408 9.643L8.04301 14.006L8.03001 14.019C7.36014 14.6875 6.4524 15.063 5.50601 15.063C4.55961 15.063 3.65187 14.6875 2.98201 14.019C2.64997 13.6862 2.38688 13.2912 2.20782 12.8566C2.02876 12.4219 1.93726 11.9562 1.93856 11.4861C1.93986 11.016 2.03394 10.5508 2.2154 10.1171C2.39686 9.68349 2.66213 9.28992 2.99601 8.959L2.99501 8.958L9.39001 2.565C10.229 1.725 11.595 1.725 12.435 2.565C13.275 3.405 13.274 4.77 12.435 5.609L6.34501 11.698C6.20872 11.8234 6.02926 11.8912 5.84412 11.8874C5.65899 11.8836 5.48248 11.8084 5.35148 11.6775C5.22047 11.5466 5.1451 11.3702 5.1411 11.1851C5.13709 10.9999 5.20478 10.8204 5.33001 10.684L10.405 5.609L10.404 5.61Z" fill="#7B9DB4"/>
</g>
<defs>
<clipPath id="clip0_21_961">
<rect width="16" height="16" fill="white" transform="translate(0 0.5)"/>
</clipPath>
</defs>
</svg>
