<svg width="31" height="31" viewBox="0 0 31 31" fill="none" xmlns="http://www.w3.org/2000/svg">
<path d="M24.5417 14.2083H9.22258L13.9113 8.57666C14.1306 8.31288 14.2361 7.97281 14.2046 7.63126C14.1731 7.28971 14.0072 6.97466 13.7434 6.75541C13.4796 6.53617 13.1396 6.43069 12.798 6.46218C12.4565 6.49367 12.1414 6.65955 11.9222 6.92333L5.46383 14.6733C5.42038 14.735 5.38153 14.7997 5.34758 14.8671C5.34758 14.9317 5.34758 14.9704 5.25716 15.035C5.19862 15.1831 5.16796 15.3407 5.16675 15.5C5.16796 15.6592 5.19862 15.8169 5.25716 15.965C5.25716 16.0296 5.25716 16.0683 5.34758 16.1329C5.38153 16.2003 5.42038 16.265 5.46383 16.3267L11.9222 24.0767C12.0436 24.2225 12.1957 24.3397 12.3676 24.4201C12.5395 24.5005 12.727 24.542 12.9167 24.5417C13.2185 24.5423 13.511 24.4371 13.7434 24.2446C13.8742 24.1361 13.9823 24.003 14.0616 23.8527C14.1408 23.7024 14.1896 23.538 14.2052 23.3688C14.2208 23.1996 14.2029 23.029 14.1525 22.8668C14.102 22.7045 14.0201 22.5538 13.9113 22.4233L9.22258 16.7917H24.5417C24.8843 16.7917 25.2129 16.6556 25.4551 16.4133C25.6973 16.1711 25.8334 15.8426 25.8334 15.5C25.8334 15.1574 25.6973 14.8289 25.4551 14.5866C25.2129 14.3444 24.8843 14.2083 24.5417 14.2083Z" fill="#131313"/>
</svg>
