<svg width="24" height="25" viewBox="0 0 24 25" fill="none" xmlns="http://www.w3.org/2000/svg">
<path d="M18.944 11.5665C18.507 8.12454 15.56 5.45454 12 5.45454C9.244 5.45454 6.85 7.06454 5.757 9.60354C3.609 10.2465 2 12.2745 2 14.4545C2 17.1115 4.089 19.2695 6.708 19.4255V19.4545H17.99V19.4515L18 19.4545C20.206 19.4545 22 17.6605 22 15.4545C21.9988 14.5581 21.6971 13.6879 21.1431 12.983C20.5891 12.2782 19.8148 11.7795 18.944 11.5665ZM8 12.4545H11V9.45454H13V12.4545H16L12 17.4545L8 12.4545Z" fill="#19A3BB"/>
</svg>
