<svg width="16" height="19" viewBox="0 0 16 19" fill="none" xmlns="http://www.w3.org/2000/svg">
<path d="M15.2312 6.34593C14.8263 5.77157 14.2617 5.09886 13.6422 4.45407C13.0227 3.80929 12.3763 3.22157 11.8245 2.80021C10.8842 2.08257 10.428 2 10.1667 2H3.45833C2.6545 2 2 2.68121 2 3.51786V17.4821C2 18.3188 2.6545 19 3.45833 19H14.5417C15.3455 19 16 18.3188 16 17.4821V8.07143C16 7.79943 15.9207 7.32464 15.2312 6.34593ZM12.8162 5.31379C13.3762 5.89664 13.8148 6.42121 14.1392 6.85714H11.3322V3.93679C11.751 4.27436 12.2562 4.73093 12.815 5.31379H12.8162ZM14.8333 17.4821C14.8333 17.6473 14.7003 17.7857 14.5417 17.7857H3.45833C3.38126 17.7848 3.3076 17.7525 3.2531 17.6958C3.1986 17.639 3.16758 17.5624 3.16667 17.4821V3.51786C3.16667 3.35393 3.29967 3.21429 3.45833 3.21429H10.1667V7.46429C10.1667 7.62531 10.2281 7.77974 10.3375 7.8936C10.4469 8.00746 10.5953 8.07143 10.75 8.07143H14.8333V17.4821Z" fill="#C2CFE0"/>
<path d="M9.50773 0.801646C8.59772 0.0827191 8.15626 0 7.90335 0H1.41131C0.633397 0 0 0.682433 0 1.52057V15.5098C0 16.2446 0.485492 16.8589 1.12905 17V1.52057C1.12905 1.35635 1.25889 1.21646 1.41131 1.21646H10C9.83897 1.07351 9.67444 0.935194 9.5066 0.801646H9.50773Z" fill="#C2CFE0"/>
</svg>
