<svg width="18" height="19" viewBox="0 0 18 19" fill="none" xmlns="http://www.w3.org/2000/svg">
<path d="M17 16.3209V9.75048C17 9.29335 16.9112 8.84104 16.7388 8.42123C16.5664 8.00142 16.3142 7.62296 15.9976 7.30903L10.0992 1.45898C9.80213 1.16423 9.40882 1 9 1C8.59118 1 8.19787 1.16423 7.9008 1.45898L2.0024 7.30903C1.68578 7.62296 1.43356 8.00142 1.2612 8.42123C1.08883 8.84104 0.999954 9.29335 1 9.75048V16.3209C1 16.7662 1.16857 17.1933 1.46863 17.5082C1.76869 17.8231 2.17565 18 2.6 18H15.4C15.8243 18 16.2313 17.8231 16.5314 17.5082C16.8314 17.1933 17 16.7662 17 16.3209Z" stroke="#C2CFE0" stroke-width="2" stroke-linecap="round" stroke-linejoin="round"/>
</svg>
