<svg width="51" height="65" viewBox="0 0 51 65" fill="none" xmlns="http://www.w3.org/2000/svg">
<path fill-rule="evenodd" clip-rule="evenodd" d="M44.3767 60.8788H11.2599C8.82119 60.8788 6.84427 58.6538 6.84427 55.9092V7.45461C6.84427 4.70992 8.82119 2.48491 11.2599 2.48491H34.0834C34.3859 2.48491 34.6853 2.51985 34.9774 2.58783V13.9092C34.9774 16.2564 36.6563 18.1592 38.7274 18.1592H48.7201C48.7678 18.4527 48.7923 18.7522 48.7923 19.0545V55.9092C48.7923 58.6538 46.8154 60.8788 44.3767 60.8788ZM47.745 15.841C47.7002 15.7815 47.6541 15.7231 47.6067 15.6659L42.5319 9.53857L37.0982 3.8236C37.0733 3.79743 37.0482 3.77162 37.0228 3.74616V13.9092C37.0228 14.9761 37.786 15.841 38.7274 15.841H47.745ZM38.6056 2.0081L44.0949 7.78156L49.2216 13.9715C50.3646 15.3515 51.0001 17.1679 51.0001 19.0545V55.9092C51.0001 60.0262 48.0347 63.3637 44.3767 63.3637H11.2599C7.60186 63.3637 4.63647 60.0262 4.63647 55.9092V7.45461C4.63647 3.33757 7.60186 6.10352e-05 11.2599 6.10352e-05H34.0834C35.7624 6.10352e-05 37.3788 0.717801 38.6056 2.0081Z" fill="#7B9DB4"/>
<rect opacity="0.2" x="10.8181" y="23.1819" width="35.5455" height="9.27273" fill="#7B9DB4"/>
<rect opacity="0.2" x="10.8181" y="34.0001" width="26.2727" height="3.09091" fill="#7B9DB4"/>
<rect opacity="0.2" x="10.8181" y="38.6365" width="30.9091" height="3.09091" fill="#7B9DB4"/>
<rect y="46.3636" width="41.7273" height="18.5455" fill="#419F4B"/>
<path d="M13.1264 51.7326V59.4546H11.2454V56.2756H8.31936V59.4546H6.43836V51.7326H8.31936V54.7576H11.2454V51.7326H13.1264ZM20.1493 51.7326V53.2396H18.1033V59.4546H16.2223V53.2396H14.1763V51.7326H20.1493ZM29.9483 51.7326V59.4546H28.0673V54.8236L26.3403 59.4546H24.8223L23.0843 54.8126V59.4546H21.2033V51.7326H23.4253L25.5923 57.0786L27.7373 51.7326H29.9483ZM33.2919 58.0026H35.7559V59.4546H31.4109V51.7326H33.2919V58.0026Z" fill="white"/>
</svg>
