<svg width="169" height="29" viewBox="0 0 169 29" fill="none" xmlns="http://www.w3.org/2000/svg">
<mask id="mask0_21_1080" style="mask-type:alpha" maskUnits="userSpaceOnUse" x="0" y="0" width="12" height="29">
<rect y="0.863647" width="12" height="27.2727" fill="#D9D9D9"/>
</mask>
<g mask="url(#mask0_21_1080)">
<path d="M0.85802 12.5597L7.5354 0.994171L10.2187 5.92733C10.9459 7.26434 10.9254 8.88337 10.1644 10.2015L7.62542 14.599L10.2159 19.3838C10.9391 20.7195 10.9169 22.335 10.1575 23.6504L7.41335 28.4033L0.848276 16.9138C0.0769858 15.564 0.0806961 13.9061 0.85802 12.5597Z" fill="url(#paint0_linear_21_1080)"/>
<path d="M4.79843 19.4955L7.62543 14.599L10.2159 19.3838C10.9391 20.7195 10.9169 22.3349 10.1575 23.6504L7.41336 28.4033L4.79686 23.8638C4.01758 22.5118 4.01818 20.8469 4.79843 19.4955Z" fill="url(#paint1_linear_21_1080)"/>
</g>
<path d="M22.18 11.14C22.54 10.5533 23.0067 10.0933 23.58 9.76C24.1667 9.42667 24.8333 9.26 25.58 9.26V12.2H24.84C23.96 12.2 23.2933 12.4067 22.84 12.82C22.4 13.2333 22.18 13.9533 22.18 14.98V20.5H19.38V9.42H22.18V11.14ZM37.9659 14.72C37.9659 15.12 37.9393 15.48 37.8859 15.8H29.7859C29.8526 16.6 30.1326 17.2267 30.6259 17.68C31.1193 18.1333 31.7259 18.36 32.4459 18.36C33.4859 18.36 34.2259 17.9133 34.6659 17.02H37.6859C37.3659 18.0867 36.7526 18.9667 35.8459 19.66C34.9393 20.34 33.8259 20.68 32.5059 20.68C31.4393 20.68 30.4793 20.4467 29.6259 19.98C28.7859 19.5 28.1259 18.8267 27.6459 17.96C27.1793 17.0933 26.9459 16.0933 26.9459 14.96C26.9459 13.8133 27.1793 12.8067 27.6459 11.94C28.1126 11.0733 28.7659 10.4067 29.6059 9.94C30.4459 9.47333 31.4126 9.24 32.5059 9.24C33.5593 9.24 34.4993 9.46667 35.3259 9.92C36.1659 10.3733 36.8126 11.02 37.2659 11.86C37.7326 12.6867 37.9659 13.64 37.9659 14.72ZM35.0659 13.92C35.0526 13.2 34.7926 12.6267 34.2859 12.2C33.7793 11.76 33.1593 11.54 32.4259 11.54C31.7326 11.54 31.1459 11.7533 30.6659 12.18C30.1993 12.5933 29.9126 13.1733 29.8059 13.92H35.0659ZM44.4497 20.68C43.543 20.68 42.7297 20.52 42.0097 20.2C41.2897 19.8667 40.7164 19.42 40.2897 18.86C39.8764 18.3 39.6497 17.68 39.6097 17H42.4297C42.483 17.4267 42.6897 17.78 43.0497 18.06C43.423 18.34 43.883 18.48 44.4297 18.48C44.963 18.48 45.3764 18.3733 45.6697 18.16C45.9764 17.9467 46.1297 17.6733 46.1297 17.34C46.1297 16.98 45.943 16.7133 45.5697 16.54C45.2097 16.3533 44.6297 16.1533 43.8297 15.94C43.003 15.74 42.323 15.5333 41.7897 15.32C41.2697 15.1067 40.8164 14.78 40.4297 14.34C40.0564 13.9 39.8697 13.3067 39.8697 12.56C39.8697 11.9467 40.043 11.3867 40.3897 10.88C40.7497 10.3733 41.2564 9.97333 41.9097 9.68C42.5764 9.38667 43.3564 9.24 44.2497 9.24C45.5697 9.24 46.623 9.57333 47.4097 10.24C48.1964 10.8933 48.6297 11.78 48.7097 12.9H46.0297C45.9897 12.46 45.803 12.1133 45.4697 11.86C45.1497 11.5933 44.7164 11.46 44.1697 11.46C43.663 11.46 43.2697 11.5533 42.9897 11.74C42.723 11.9267 42.5897 12.1867 42.5897 12.52C42.5897 12.8933 42.7764 13.18 43.1497 13.38C43.523 13.5667 44.103 13.76 44.8897 13.96C45.6897 14.16 46.3497 14.3667 46.8697 14.58C47.3897 14.7933 47.8364 15.1267 48.2097 15.58C48.5964 16.02 48.7964 16.6067 48.8097 17.34C48.8097 17.98 48.6297 18.5533 48.2697 19.06C47.923 19.5667 47.4164 19.9667 46.7497 20.26C46.0964 20.54 45.3297 20.68 44.4497 20.68ZM56.2281 20.68C55.1615 20.68 54.2015 20.4467 53.3481 19.98C52.4948 19.5 51.8215 18.8267 51.3281 17.96C50.8481 17.0933 50.6081 16.0933 50.6081 14.96C50.6081 13.8267 50.8548 12.8267 51.3481 11.96C51.8548 11.0933 52.5415 10.4267 53.4081 9.96C54.2748 9.48 55.2415 9.24 56.3081 9.24C57.3748 9.24 58.3415 9.48 59.2081 9.96C60.0748 10.4267 60.7548 11.0933 61.2481 11.96C61.7548 12.8267 62.0081 13.8267 62.0081 14.96C62.0081 16.0933 61.7481 17.0933 61.2281 17.96C60.7215 18.8267 60.0281 19.5 59.1481 19.98C58.2815 20.4467 57.3081 20.68 56.2281 20.68ZM56.2281 18.24C56.7348 18.24 57.2081 18.12 57.6481 17.88C58.1015 17.6267 58.4615 17.2533 58.7281 16.76C58.9948 16.2667 59.1281 15.6667 59.1281 14.96C59.1281 13.9067 58.8481 13.1 58.2881 12.54C57.7415 11.9667 57.0681 11.68 56.2681 11.68C55.4681 11.68 54.7948 11.9667 54.2481 12.54C53.7148 13.1 53.4481 13.9067 53.4481 14.96C53.4481 16.0133 53.7081 16.8267 54.2281 17.4C54.7615 17.96 55.4281 18.24 56.2281 18.24ZM74.722 9.42V20.5H71.902V19.1C71.542 19.58 71.0687 19.96 70.482 20.24C69.9087 20.5067 69.282 20.64 68.602 20.64C67.7354 20.64 66.9687 20.46 66.302 20.1C65.6354 19.7267 65.1087 19.1867 64.722 18.48C64.3487 17.76 64.162 16.9067 64.162 15.92V9.42H66.962V15.52C66.962 16.4 67.182 17.08 67.622 17.56C68.062 18.0267 68.662 18.26 69.422 18.26C70.1954 18.26 70.802 18.0267 71.242 17.56C71.682 17.08 71.902 16.4 71.902 15.52V9.42H74.722ZM80.4847 11.14C80.8447 10.5533 81.3114 10.0933 81.8847 9.76C82.4714 9.42667 83.138 9.26 83.8847 9.26V12.2H83.1447C82.2647 12.2 81.598 12.4067 81.1447 12.82C80.7047 13.2333 80.4847 13.9533 80.4847 14.98V20.5H77.6847V9.42H80.4847V11.14ZM85.2506 14.96C85.2506 13.8133 85.484 12.8133 85.9506 11.96C86.4173 11.0933 87.064 10.4267 87.8906 9.96C88.7173 9.48 89.664 9.24 90.7306 9.24C92.104 9.24 93.2373 9.58667 94.1306 10.28C95.0373 10.96 95.644 11.92 95.9506 13.16H92.9306C92.7706 12.68 92.4973 12.3067 92.1106 12.04C91.7373 11.76 91.2706 11.62 90.7106 11.62C89.9106 11.62 89.2773 11.9133 88.8106 12.5C88.344 13.0733 88.1106 13.8933 88.1106 14.96C88.1106 16.0133 88.344 16.8333 88.8106 17.42C89.2773 17.9933 89.9106 18.28 90.7106 18.28C91.844 18.28 92.584 17.7733 92.9306 16.76H95.9506C95.644 17.96 95.0373 18.9133 94.1306 19.62C93.224 20.3267 92.0906 20.68 90.7306 20.68C89.664 20.68 88.7173 20.4467 87.8906 19.98C87.064 19.5 86.4173 18.8333 85.9506 17.98C85.484 17.1133 85.2506 16.1067 85.2506 14.96ZM108.502 14.72C108.502 15.12 108.475 15.48 108.422 15.8H100.322C100.389 16.6 100.669 17.2267 101.162 17.68C101.655 18.1333 102.262 18.36 102.982 18.36C104.022 18.36 104.762 17.9133 105.202 17.02H108.222C107.902 18.0867 107.289 18.9667 106.382 19.66C105.475 20.34 104.362 20.68 103.042 20.68C101.975 20.68 101.015 20.4467 100.162 19.98C99.3219 19.5 98.6619 18.8267 98.1819 17.96C97.7152 17.0933 97.4819 16.0933 97.4819 14.96C97.4819 13.8133 97.7152 12.8067 98.1819 11.94C98.6485 11.0733 99.3019 10.4067 100.142 9.94C100.982 9.47333 101.949 9.24 103.042 9.24C104.095 9.24 105.035 9.46667 105.862 9.92C106.702 10.3733 107.349 11.02 107.802 11.86C108.269 12.6867 108.502 13.64 108.502 14.72ZM105.602 13.92C105.589 13.2 105.329 12.6267 104.822 12.2C104.315 11.76 103.695 11.54 102.962 11.54C102.269 11.54 101.682 11.7533 101.202 12.18C100.735 12.5933 100.449 13.1733 100.342 13.92H105.602ZM111.986 20.64C111.479 20.64 111.059 20.4867 110.726 20.18C110.406 19.86 110.246 19.4667 110.246 19C110.246 18.5333 110.406 18.1467 110.726 17.84C111.059 17.52 111.479 17.36 111.986 17.36C112.479 17.36 112.886 17.52 113.206 17.84C113.526 18.1467 113.686 18.5333 113.686 19C113.686 19.4667 113.526 19.86 113.206 20.18C112.886 20.4867 112.479 20.64 111.986 20.64ZM115.421 14.96C115.421 13.8133 115.654 12.8133 116.121 11.96C116.588 11.0933 117.234 10.4267 118.061 9.96C118.888 9.48 119.834 9.24 120.901 9.24C122.274 9.24 123.408 9.58667 124.301 10.28C125.208 10.96 125.814 11.92 126.121 13.16H123.101C122.941 12.68 122.668 12.3067 122.281 12.04C121.908 11.76 121.441 11.62 120.881 11.62C120.081 11.62 119.448 11.9133 118.981 12.5C118.514 13.0733 118.281 13.8933 118.281 14.96C118.281 16.0133 118.514 16.8333 118.981 17.42C119.448 17.9933 120.081 18.28 120.881 18.28C122.014 18.28 122.754 17.7733 123.101 16.76H126.121C125.814 17.96 125.208 18.9133 124.301 19.62C123.394 20.3267 122.261 20.68 120.901 20.68C119.834 20.68 118.888 20.4467 118.061 19.98C117.234 19.5 116.588 18.8333 116.121 17.98C115.654 17.1133 115.421 16.1067 115.421 14.96ZM133.292 20.68C132.226 20.68 131.266 20.4467 130.412 19.98C129.559 19.5 128.886 18.8267 128.392 17.96C127.912 17.0933 127.672 16.0933 127.672 14.96C127.672 13.8267 127.919 12.8267 128.412 11.96C128.919 11.0933 129.606 10.4267 130.472 9.96C131.339 9.48 132.306 9.24 133.372 9.24C134.439 9.24 135.406 9.48 136.272 9.96C137.139 10.4267 137.819 11.0933 138.312 11.96C138.819 12.8267 139.072 13.8267 139.072 14.96C139.072 16.0933 138.812 17.0933 138.292 17.96C137.786 18.8267 137.092 19.5 136.212 19.98C135.346 20.4467 134.372 20.68 133.292 20.68ZM133.292 18.24C133.799 18.24 134.272 18.12 134.712 17.88C135.166 17.6267 135.526 17.2533 135.792 16.76C136.059 16.2667 136.192 15.6667 136.192 14.96C136.192 13.9067 135.912 13.1 135.352 12.54C134.806 11.9667 134.132 11.68 133.332 11.68C132.532 11.68 131.859 11.9667 131.312 12.54C130.779 13.1 130.512 13.9067 130.512 14.96C130.512 16.0133 130.772 16.8267 131.292 17.4C131.826 17.96 132.492 18.24 133.292 18.24Z" fill="white"/>
<defs>
<linearGradient id="paint0_linear_21_1080" x1="7.5354" y1="0.994171" x2="4.24661" y2="22.5559" gradientUnits="userSpaceOnUse">
<stop stop-color="#B7F0B6"/>
<stop offset="1" stop-color="#5AE4B0"/>
</linearGradient>
<linearGradient id="paint1_linear_21_1080" x1="7.68468" y1="14.8201" x2="7.41336" y2="28.4033" gradientUnits="userSpaceOnUse">
<stop stop-color="#1098AA"/>
<stop offset="1" stop-color="#7FEDAF"/>
</linearGradient>
</defs>
</svg>
