<svg width="24" height="25" viewBox="0 0 24 25" fill="none" xmlns="http://www.w3.org/2000/svg">
<path d="M4 13.3182C4.55228 13.3182 5 12.8705 5 12.3182C5 11.7659 4.55228 11.3182 4 11.3182C3.44772 11.3182 3 11.7659 3 12.3182C3 12.8705 3.44772 13.3182 4 13.3182Z" stroke="black" stroke-width="2"/>
<path d="M12 13.3182C12.5523 13.3182 13 12.8705 13 12.3182C13 11.7659 12.5523 11.3182 12 11.3182C11.4477 11.3182 11 11.7659 11 12.3182C11 12.8705 11.4477 13.3182 12 13.3182Z" stroke="black" stroke-width="2"/>
<path d="M20 13.3182C20.5523 13.3182 21 12.8705 21 12.3182C21 11.7659 20.5523 11.3182 20 11.3182C19.4477 11.3182 19 11.7659 19 12.3182C19 12.8705 19.4477 13.3182 20 13.3182Z" stroke="black" stroke-width="2"/>
</svg>
