<svg width="19" height="19" viewBox="0 0 19 19" fill="none" xmlns="http://www.w3.org/2000/svg">
<path d="M5.45 4.75C5.45 2.51222 7.26222 0.7 9.5 0.7C11.7378 0.7 13.55 2.51222 13.55 4.75C13.55 6.98778 11.7378 8.8 9.5 8.8C7.26222 8.8 5.45 6.98778 5.45 4.75ZM0.7 15.4375C0.7 14.9049 0.961237 14.3866 1.51326 13.8771C2.07005 13.3632 2.87471 12.907 3.82133 12.5278C5.71568 11.7689 8.00219 11.3875 9.5 11.3875C10.9978 11.3875 13.2843 11.7689 15.1787 12.5278C16.1253 12.907 16.93 13.3632 17.4867 13.8771C18.0388 14.3866 18.3 14.9049 18.3 15.4375V18.3H0.7V15.4375Z" stroke="#C2CFE0" stroke-width="1.4"/>
</svg>
