<svg width="51" height="65" viewBox="0 0 51 65" fill="none" xmlns="http://www.w3.org/2000/svg">
<path fill-rule="evenodd" clip-rule="evenodd" d="M44.3767 60.8788H11.2599C8.82119 60.8788 6.84427 58.6538 6.84427 55.9092V7.45461C6.84427 4.70992 8.82119 2.48491 11.2599 2.48491H34.0834C34.3859 2.48491 34.6853 2.51985 34.9774 2.58783V13.9092C34.9774 16.2564 36.6563 18.1592 38.7274 18.1592H48.7201C48.7678 18.4527 48.7923 18.7522 48.7923 19.0545V55.9092C48.7923 58.6538 46.8154 60.8788 44.3767 60.8788ZM47.745 15.841C47.7002 15.7815 47.6541 15.7231 47.6067 15.6659L42.5319 9.53857L37.0982 3.8236C37.0733 3.79743 37.0482 3.77162 37.0228 3.74616V13.9092C37.0228 14.9761 37.786 15.841 38.7274 15.841H47.745ZM38.6056 2.0081L44.0949 7.78156L49.2216 13.9715C50.3646 15.3515 51.0001 17.1679 51.0001 19.0545V55.9092C51.0001 60.0262 48.0347 63.3637 44.3767 63.3637H11.2599C7.60186 63.3637 4.63647 60.0262 4.63647 55.9092V7.45461C4.63647 3.33757 7.60186 6.10352e-05 11.2599 6.10352e-05H34.0834C35.7624 6.10352e-05 37.3788 0.717801 38.6056 2.0081Z" fill="#7B9DB4"/>
<g clip-path="url(#clip0_87_386)">
<path d="M27.5034 27.2812C27.5034 27.9526 27.2367 28.5964 26.762 29.0711C26.2873 29.5458 25.6435 29.8125 24.9722 29.8125C24.3008 29.8125 23.657 29.5458 23.1823 29.0711C22.7076 28.5964 22.4409 27.9526 22.4409 27.2812C22.4409 26.6099 22.7076 25.9661 23.1823 25.4914C23.657 25.0167 24.3008 24.75 24.9722 24.75C25.6435 24.75 26.2873 25.0167 26.762 25.4914C27.2367 25.9661 27.5034 26.6099 27.5034 27.2812V27.2812Z" fill="#C2CFE0"/>
<path d="M34.25 18H20.75C19.8549 18 18.9964 18.3556 18.3635 18.9885C17.7306 19.6214 17.375 20.4799 17.375 21.375V41.625C17.375 42.5201 17.7306 43.3785 18.3635 44.0115C18.9964 44.6444 19.8549 45 20.75 45H34.25C35.1451 45 36.0035 44.6444 36.6365 44.0115C37.2694 43.3785 37.625 42.5201 37.625 41.625V21.375C37.625 20.4799 37.2694 19.6214 36.6365 18.9885C36.0035 18.3556 35.1451 18 34.25 18V18ZM19.0625 21.375C19.0625 20.9274 19.2403 20.4982 19.5568 20.1818C19.8732 19.8653 20.3024 19.6875 20.75 19.6875H34.25C34.6976 19.6875 35.1268 19.8653 35.4432 20.1818C35.7597 20.4982 35.9375 20.9274 35.9375 21.375V34.875L32.4224 31.3599C32.3358 31.2734 32.2313 31.2068 32.1164 31.1647C32.0014 31.1226 31.8786 31.106 31.7566 31.1162C31.6345 31.1263 31.5162 31.1628 31.4097 31.2233C31.3032 31.2837 31.2112 31.3666 31.1399 31.4663L27.5 36.5625L23.8466 34.3687C23.685 34.272 23.4958 34.2321 23.3089 34.2553C23.1221 34.2786 22.9484 34.3636 22.8155 34.497L19.0625 38.25V21.375Z" fill="#C2CFE0"/>
</g>
<rect y="46.3636" width="41.7273" height="18.5455" fill="#2B3487"/>
<path d="M15.5634 54.2186C15.5634 54.6659 15.4608 55.0766 15.2554 55.4506C15.0501 55.8173 14.7348 56.1143 14.3094 56.3416C13.8841 56.5689 13.3561 56.6826 12.7254 56.6826H11.5594V59.4546H9.67842V51.7326H12.7254C13.3414 51.7326 13.8621 51.8389 14.2874 52.0516C14.7128 52.2643 15.0318 52.5576 15.2444 52.9316C15.4571 53.3056 15.5634 53.7346 15.5634 54.2186ZM12.5824 55.1866C12.9418 55.1866 13.2094 55.1023 13.3854 54.9336C13.5614 54.7649 13.6494 54.5266 13.6494 54.2186C13.6494 53.9106 13.5614 53.6723 13.3854 53.5036C13.2094 53.3349 12.9418 53.2506 12.5824 53.2506H11.5594V55.1866H12.5824ZM23.5607 59.4546H21.6797L18.5337 54.6916V59.4546H16.6527V51.7326H18.5337L21.6797 56.5176V51.7326H23.5607V59.4546ZM30.1602 54.1746C30.0208 53.9179 29.8192 53.7236 29.5552 53.5916C29.2985 53.4523 28.9942 53.3826 28.6422 53.3826C28.0335 53.3826 27.5458 53.5843 27.1792 53.9876C26.8125 54.3836 26.6292 54.9153 26.6292 55.5826C26.6292 56.2939 26.8198 56.8513 27.2012 57.2546C27.5898 57.6506 28.1215 57.8486 28.7962 57.8486C29.2582 57.8486 29.6468 57.7313 29.9622 57.4966C30.2848 57.2619 30.5195 56.9246 30.6662 56.4846H28.2792V55.0986H32.3712V56.8476C32.2318 57.3169 31.9935 57.7533 31.6562 58.1566C31.3262 58.5599 30.9045 58.8863 30.3912 59.1356C29.8778 59.3849 29.2985 59.5096 28.6532 59.5096C27.8905 59.5096 27.2085 59.3446 26.6072 59.0146C26.0132 58.6773 25.5475 58.2116 25.2102 57.6176C24.8802 57.0236 24.7152 56.3453 24.7152 55.5826C24.7152 54.8199 24.8802 54.1416 25.2102 53.5476C25.5475 52.9463 26.0132 52.4806 26.6072 52.1506C27.2012 51.8133 27.8795 51.6446 28.6422 51.6446C29.5662 51.6446 30.3435 51.8683 30.9742 52.3156C31.6122 52.7629 32.0338 53.3826 32.2392 54.1746H30.1602Z" fill="white"/>
<defs>
<clipPath id="clip0_87_386">
<rect width="27" height="27" fill="white" transform="translate(14 18)"/>
</clipPath>
</defs>
</svg>
