<svg width="17" height="17" viewBox="0 0 17 17" fill="none" xmlns="http://www.w3.org/2000/svg">
<path d="M1 8.74444C0.834313 8.74444 0.7 8.61013 0.7 8.44445V1C0.7 0.834314 0.834315 0.7 1 0.7H6.55556C6.72124 0.7 6.85556 0.834314 6.85556 0.999999V8.44444C6.85556 8.61013 6.72124 8.74444 6.55556 8.74444H1ZM1 16.3C0.834314 16.3 0.7 16.1657 0.7 16V12.3333C0.7 12.1676 0.834315 12.0333 1 12.0333H6.55556C6.72124 12.0333 6.85556 12.1676 6.85556 12.3333V16C6.85556 16.1657 6.72124 16.3 6.55556 16.3H1ZM10.4444 16.3C10.2788 16.3 10.1444 16.1657 10.1444 16V8.55556C10.1444 8.38987 10.2788 8.25556 10.4444 8.25556H16C16.1657 8.25556 16.3 8.38987 16.3 8.55555V16C16.3 16.1657 16.1657 16.3 16 16.3H10.4444ZM10.1444 1C10.1444 0.834314 10.2788 0.7 10.4444 0.7H16C16.1657 0.7 16.3 0.834315 16.3 0.999999V4.66667C16.3 4.83235 16.1657 4.96667 16 4.96667H10.4444C10.2788 4.96667 10.1444 4.83235 10.1444 4.66667V1Z" stroke="#C2CFE0" stroke-width="1.4"/>
</svg>
