<svg width="10" height="13" viewBox="0 0 10 13" fill="none" xmlns="http://www.w3.org/2000/svg">
<path d="M7.0832 6.3832C7.15831 6.30809 7.20051 6.20622 7.20051 6.1C7.20051 5.99378 7.15831 5.89191 7.0832 5.8168C7.00809 5.74169 6.90622 5.69949 6.8 5.69949C6.69378 5.69949 6.59191 5.74169 6.5168 5.8168L4 8.3344L3.0832 7.4168C3.04601 7.37961 3.00186 7.35011 2.95327 7.32998C2.90468 7.30985 2.8526 7.29949 2.8 7.29949C2.74741 7.29949 2.69532 7.30985 2.64673 7.32998C2.59814 7.35011 2.55399 7.37961 2.5168 7.4168C2.47961 7.45399 2.45011 7.49814 2.42998 7.54673C2.40985 7.59532 2.39949 7.6474 2.39949 7.7C2.39949 7.75259 2.40985 7.80467 2.42998 7.85327C2.45011 7.90186 2.47961 7.94601 2.5168 7.9832L3.7168 9.1832C3.75396 9.22045 3.7981 9.25 3.84669 9.27017C3.89529 9.29033 3.94739 9.30071 4 9.30071C4.05261 9.30071 4.10471 9.29033 4.15331 9.27017C4.2019 9.25 4.24604 9.22045 4.2832 9.1832L7.0832 6.3832ZM3.6 0.0999986C3.35174 0.0998685 3.10955 0.176741 2.90681 0.320021C2.70407 0.463301 2.55075 0.665936 2.468 0.899999H1.2C0.88174 0.899999 0.576515 1.02643 0.351472 1.25147C0.126428 1.47651 0 1.78174 0 2.1V11.7C0 12.0183 0.126428 12.3235 0.351472 12.5485C0.576515 12.7736 0.88174 12.9 1.2 12.9H8.4C8.71826 12.9 9.02349 12.7736 9.24853 12.5485C9.47357 12.3235 9.6 12.0183 9.6 11.7V2.1C9.6 1.78174 9.47357 1.47651 9.24853 1.25147C9.02349 1.02643 8.71826 0.899999 8.4 0.899999H7.132C7.04925 0.665936 6.89593 0.463301 6.69319 0.320021C6.49045 0.176741 6.24826 0.0998685 6 0.0999986H3.6ZM3.2 1.3C3.2 1.19391 3.24214 1.09217 3.31716 1.01716C3.39217 0.942141 3.49391 0.899999 3.6 0.899999H6C6.10609 0.899999 6.20783 0.942141 6.28284 1.01716C6.35786 1.09217 6.4 1.19391 6.4 1.3C6.4 1.40609 6.35786 1.50783 6.28284 1.58284C6.20783 1.65786 6.10609 1.7 6 1.7H3.6C3.49391 1.7 3.39217 1.65786 3.31716 1.58284C3.24214 1.50783 3.2 1.40609 3.2 1.3ZM1.2 1.7H2.468C2.55075 1.93406 2.70407 2.1367 2.90681 2.27998C3.10955 2.42326 3.35174 2.50013 3.6 2.5H6C6.24826 2.50013 6.49045 2.42326 6.69319 2.27998C6.89593 2.1367 7.04925 1.93406 7.132 1.7H8.4C8.50609 1.7 8.60783 1.74214 8.68284 1.81716C8.75786 1.89217 8.8 1.99391 8.8 2.1V11.7C8.8 11.8061 8.75786 11.9078 8.68284 11.9828C8.60783 12.0579 8.50609 12.1 8.4 12.1H1.2C1.09391 12.1 0.992172 12.0579 0.917157 11.9828C0.842143 11.9078 0.8 11.8061 0.8 11.7V2.1C0.8 1.99391 0.842143 1.89217 0.917157 1.81716C0.992172 1.74214 1.09391 1.7 1.2 1.7Z" fill="#19A3BB"/>
</svg>
